<svg width="32" height="24" viewBox="0 0 32 24" fill="none" xmlns="http://www.w3.org/2000/svg">
<path d="M25.4041 20.8684V13.1991L16.1061 21.9902L16.0373 22.0553L15.9686 21.9901L13.101 19.2688L13.0698 19.2392V19.1963V15.2393L1.28486 4.02319L1.2538 3.99363V3.95075V1V0.767246L1.42264 0.927462L16.0374 14.7962L30.6177 0.96025L30.7865 0.800033V1.03279V22.9995V23.1487L30.6485 23.0919L25.466 20.9608L25.4041 20.9354V20.8684Z" fill="white" stroke="white" stroke-width="0.2"/>
<path d="M1.20463 5.22974V4.8806L1.45788 5.12093L12.341 15.4485L12.3878 15.4929V15.5574V18.3114V18.662L12.1342 18.4199L6.72164 13.2523V21.0281V21.1318L6.62466 21.1684L1.40766 23.1401L1.20463 23.2168V22.9998V5.22974Z" fill="white" stroke="white" stroke-width="0.3"/>
</svg>
