<svg width="12" height="16" viewBox="0 0 12 16" fill="none" xmlns="http://www.w3.org/2000/svg">
<path d="M6 0.5C3.93225 0.5 2.25 2.18225 2.25 4.25V6.5H1.5C1.10218 6.5 0.720644 6.65804 0.43934 6.93934C0.158035 7.22064 0 7.60218 0 8V14C0 14.3978 0.158035 14.7794 0.43934 15.0607C0.720644 15.342 1.10218 15.5 1.5 15.5H10.5C10.8978 15.5 11.2794 15.342 11.5607 15.0607C11.842 14.7794 12 14.3978 12 14V8C12 7.60218 11.842 7.22064 11.5607 6.93934C11.2794 6.65804 10.8978 6.5 10.5 6.5H9.75V4.25C9.75 2.18225 8.06775 0.5 6 0.5ZM3.75 4.25C3.75 3.0095 4.7595 2 6 2C7.2405 2 8.25 3.0095 8.25 4.25V6.5H3.75V4.25ZM6.75 12.2922V14H5.25V12.2922C4.98779 12.1421 4.77724 11.916 4.64612 11.6438C4.515 11.3715 4.46946 11.066 4.51551 10.7673C4.56156 10.4687 4.69704 10.191 4.90407 9.97095C5.11111 9.75086 5.37999 9.59869 5.67525 9.5345C5.89456 9.48601 6.12196 9.48736 6.34068 9.53846C6.5594 9.58956 6.76386 9.68911 6.93899 9.82975C7.11411 9.9704 7.25543 10.1486 7.35253 10.3511C7.44963 10.5536 7.50002 10.7754 7.5 11C7.49957 11.2623 7.43002 11.5199 7.29835 11.7467C7.16668 11.9736 6.97754 12.1618 6.75 12.2922Z" fill="#666666"/>
</svg>