
<svg width="18" height="18" viewBox="0 0 18 18" fill="none" xmlns="http://www.w3.org/2000/svg">
<path d="M14.5125 4.46252L13.35 5.40002C14.175 6.41252 14.625 7.68752 14.625 8.96252C14.625 12.075 12.1125 14.5875 9 14.5875C8.6625 14.5875 8.2875 14.55 7.95 14.475L7.6875 15.9375C8.1375 16.0125 8.5875 16.05 9 16.05C12.9375 16.05 16.125 12.8625 16.125 8.92502C16.125 7.35002 15.5625 5.73752 14.5125 4.46252Z" fill="#FF0000"/>
<path d="M11.625 3L16.0875 3.6L12.4125 7.275L11.625 3Z" fill="#FF0202"/>
<path d="M9 1.875C5.0625 1.875 1.875 5.0625 1.875 9C1.875 10.725 2.475 12.375 3.6 13.65L4.725 12.675C3.8625 11.6625 3.375 10.35 3.375 9C3.375 5.8875 5.8875 3.375 9 3.375C9.3375 3.375 9.7125 3.4125 10.05 3.4875L10.3125 2.025C9.9 1.9125 9.45 1.875 9 1.875Z" fill="#FF0000"/>
<path d="M6.3751 15L1.9126 14.4L5.5876 10.725L6.3751 15Z" fill="#FF0202"/>
</svg>
